<svg xmlns="http://www.w3.org/2000/svg" xmlns:xlink="http://www.w3.org/1999/xlink"><style type="text/css"><![CDATA[svg>svg:not(:target){display:none;}]]></style><desc><symbol id="loc-icon"><defs><clipPath id="a" clipPathUnits="userSpaceOnUse"><path d="M0 80h50V0H0z"/></clipPath></defs><g clip-path="url(#a)" transform="matrix(.1375 0 0 -.1375 0 11)"><path d="M25 41.2c-7.457 0-13.5 6.044-13.5 13.5S17.543 68.2 25 68.2c7.455 0 13.5-6.044 13.5-13.5S32.455 41.2 25 41.2M25 80C11.191 80 0 68.806 0 55 0 31.13 25 0 25 0s25 31.13 25 55c0 13.806-11.193 25-25 25"/></g></symbol><symbol id="tel-icon"><defs><clipPath id="b" clipPathUnits="userSpaceOnUse"><path d="M0 80h80V0H0z"/></clipPath></defs><g clip-path="url(#b)" transform="matrix(.1375 0 0 -.1375 0 11)"><path d="M46.142 33.858c-7.917-7.917-17.085-15.485-20.708-11.861-5.189 5.189-8.387 9.707-19.825.515C-5.829 13.316 2.955 7.19 7.982 2.162c5.8-5.8 27.421-.305 48.792 21.063C78.142 44.597 83.64 66.217 77.836 72.019c-5.027 5.027-11.154 13.809-20.345 2.37-9.195-11.433-4.678-14.634.512-19.823 3.623-3.623-3.944-12.79-11.86-20.708"/></g></symbol><symbol id="mail-icon"><defs><clipPath id="c" clipPathUnits="userSpaceOnUse"><path d="M0 58h90V0H0z"/></clipPath></defs><g clip-path="url(#c)" transform="matrix(.18966 0 0 -.18966 0 11)"><path d="M88.064 42.572c-2.772-1.447-36.834-19.26-38.532-20.144-1.7-.887-2.89-1.002-4.532-1.002-1.643 0-2.832.115-4.532 1.002-1.698.885-35.758 18.697-38.533 20.144C-.017 43.59 0 42.396 0 41.474V4.794C0 2.7 2.792 0 4.96 0H85.04c2.167 0 4.96 2.699 4.96 4.795v36.679c0 .922.017 2.116-1.937 1.098m-85.094 10c2.44-1.312 36.24-19.468 37.498-20.144 1.26-.676 2.89-1.002 4.532-1.002 1.643 0 3.273.326 4.532 1.002L87.03 52.572c2.441 1.31 4.753 5.428.265 5.428H2.704c-4.484 0-2.175-4.117.267-5.428"/></g></symbol></desc><svg id="location" viewBox="0 0 6.875 11"><use xlink:href="#loc-icon"></use></svg><svg id="phone" viewBox="0 0 11 11"><use xlink:href="#tel-icon"></use></svg><svg id="mail" viewBox="0 0 17.069 11"><use xlink:href="#mail-icon"></use></svg></svg>
