<svg xmlns="http://www.w3.org/2000/svg" xmlns:xlink="http://www.w3.org/1999/xlink" width="64px" height="64px"><style type="text/css"><![CDATA[svg>svg:not(:target){display:none;}]]></style><desc><symbol id="f-icon"><defs><clipPath id="a" clipPathUnits="userSpaceOnUse"><path d="M0 90h50V0H0z"/></clipPath></defs><g clip-path="url(#a)" transform="matrix(.71112 0 0 -.71112 0 64)"><path d="M50 74.353H35.717c-1.688 0-3.574-2.22-3.574-5.191V58.845H50v-14.7H32.143V0H15.285v44.147H0v14.7h15.285V67.5c0 12.409 8.611 22.5 20.432 22.5H50z"/></g></symbol><symbol id="g-icon"><defs><clipPath id="b" clipPathUnits="userSpaceOnUse"><path d="M0 88h89.609V0H0z"/></clipPath></defs><g clip-path="url(#b)" transform="matrix(.71422 0 0 -.71422 0 62.851)"><path d="M74.61 53.59v15h-9.5v-15h-15v-9.5h15v-15h9.5v15h15v9.5zM35.866 70.869c2.256-7.933-1.15-16.23-6.578-17.758a7.11 7.11 0 00-1.922-.265c-4.973 0-9.9 5.03-11.725 11.96-1.019 3.893-.937 7.296.233 10.568 1.15 3.219 3.214 5.393 5.814 6.124a7.07 7.07 0 001.924.267c6.004 0 9.863-2.49 12.254-10.896m6.004-49.876c.44-7.033-5.576-12.221-14.608-12.88-9.174-.67-16.726 3.46-17.166 10.485-.213 3.374 1.272 6.683 4.176 9.316 2.947 2.669 6.992 4.315 11.393 4.639a24.41 24.41 0 001.548.054c8.491 0 14.241-4.991 14.657-11.614M4.754 66.057c0-7.468 2.494-12.86 7.412-16.028 4.025-2.593 8.701-2.981 11.13-2.981.588 0 1.061.022 1.391.044 0 0-.77-5.016 2.95-9.981h-.169C21.023 37.112 0 35.767 0 18.485 0 .899 19.308.006 23.181.006c.303 0 .481.006.481.006.043-.001.32-.012.791-.012 2.486 0 8.912.313 14.88 3.213C47.072 6.97 51 13.506 51 22.638c0 8.825-5.983 14.077-10.35 17.916-2.666 2.338-4.969 4.358-4.969 6.322 0 2 1.682 3.505 3.81 5.41 3.444 3.08 6.69 7.466 6.69 15.755 0 7.287-.945 12.178-6.765 15.28.607.312 2.752.539 3.814.685 3.154.43 7.77.92 7.77 3.496V88H28.005c-.23-.006-23.25-.86-23.25-21.943"/></g></symbol><symbol id="t-icon"><defs><clipPath id="c" clipPathUnits="userSpaceOnUse"><path d="M0 74.768h92V0H0z"/></clipPath></defs><g clip-path="url(#c)" transform="matrix(.69565 0 0 -.69565 0 52.013)"><path d="M92 65.918a37.754 37.754 0 00-10.842-2.973 18.932 18.932 0 018.301 10.443 37.827 37.827 0 00-11.986-4.58 18.852 18.852 0 01-13.778 5.96c-10.424 0-18.875-8.451-18.875-18.874 0-1.48.166-2.92.489-4.301-15.686.786-29.598 8.301-38.905 19.721a18.79 18.79 0 01-2.556-9.49c0-6.548 3.332-12.324 8.396-15.71a18.802 18.802 0 00-8.549 2.36c-.002-.078-.002-.157-.002-.237 0-9.145 6.508-16.774 15.141-18.507a18.858 18.858 0 00-8.523-.325c2.402-7.498 9.375-12.956 17.632-13.107A37.862 37.862 0 004.502 8.217c-1.523 0-3.025.09-4.502.266A53.402 53.402 0 0128.934 0C63.65 0 82.637 28.763 82.637 53.706c0 .816-.018 1.631-.055 2.442A38.324 38.324 0 0192 65.918"/></g></symbol><symbol id="i-icon"><defs><clipPath id="d" clipPathUnits="userSpaceOnUse"><path d="M0 88.738h90V0H0z"/></clipPath></defs><g clip-path="url(#d)" transform="matrix(.71111 0 0 -.71111 0 63.103)"><path d="M.506 61.901h19.242V0H.506zm19.873 17.216c0-5.315-3.924-9.62-10.381-9.62-6.074 0-9.998 4.305-9.998 9.62 0 5.444 4.051 9.621 10.252 9.621 6.203 0 10.002-4.177 10.127-9.621M31.262 42.154c0 7.721-.252 14.176-.504 19.747h16.707l.889-8.608h.379c2.53 4.052 8.734 10.002 19.115 10.002C80.506 63.295 90 54.812 90 36.585V0H70.758v34.305c0 7.976-2.785 13.417-9.748 13.417-5.316 0-8.478-3.67-9.871-7.214-.508-1.265-.635-3.039-.635-4.81V0H31.262z"/></g></symbol></desc><svg id="facebook" viewBox="0 0 35.556 64"><use xlink:href="#f-icon"></use></svg><svg id="google+" viewBox="0 0 64 62.851"><use xlink:href="#g-icon"></use></svg><svg id="twitter" viewBox="0 0 64 52.013"><use xlink:href="#t-icon"></use></svg><svg id="instagram" viewBox="0 0 64 63.103"><use xlink:href="#i-icon"></use></svg></svg>
